<?xml version="1.0" standalone="no"?>
<!DOCTYPE svg PUBLIC "-//W3C//DTD SVG 20010904//EN"
 "http://www.w3.org/TR/2001/REC-SVG-20010904/DTD/svg10.dtd">
<svg version="1.0" xmlns="http://www.w3.org/2000/svg"
 width="1280.000000pt" height="640.000000pt" viewBox="0 0 1280.000000 640.000000"
 preserveAspectRatio="xMidYMid meet">
<metadata>
Created by potrace 1.15, written by Peter Selinger 2001-2017
</metadata>
<g transform="translate(0.000000,640.000000) scale(0.100000,-0.100000)"
fill="#000000" stroke="none">
<path d="M2295 5704 c-49 -8 -144 -25 -210 -38 -318 -65 -345 -68 -595 -67
-243 2 -490 -12 -535 -29 -38 -14 -28 -42 20 -59 46 -16 176 -18 515 -8 321 9
586 32 825 72 235 39 327 30 527 -49 146 -57 199 -76 220 -76 9 0 30 -12 47
-26 25 -20 31 -34 31 -63 0 -66 -51 -89 -120 -55 -41 21 -53 14 -102 -57 -91
-133 -194 -375 -254 -602 -45 -169 -153 -492 -259 -772 -121 -322 -159 -460
-171 -624 -6 -68 -3 -85 27 -171 l33 -95 0 -225 c0 -237 -9 -305 -54 -407 -23
-53 -40 -52 -58 2 -23 69 -36 581 -22 877 6 145 14 314 17 376 4 76 2 117 -5
124 -17 17 -52 -66 -45 -106 2 -17 -5 -158 -16 -313 -29 -394 -30 -871 -1
-991 23 -97 64 -188 90 -202 10 -5 47 -16 82 -25 74 -17 110 -50 129 -117 19
-69 16 -108 -10 -129 -48 -39 -190 -66 -501 -94 -360 -32 -541 -38 -885 -26
-181 6 -429 13 -549 16 -120 4 -242 10 -270 16 -28 5 -63 7 -78 4 -36 -8 -46
-41 -20 -67 23 -23 67 -29 427 -58 652 -52 707 -54 1495 -55 755 0 755 0 831
23 88 26 133 28 182 7 52 -21 119 -19 149 5 14 10 42 52 63 91 22 42 69 106
112 151 88 95 113 142 153 289 31 113 45 149 58 149 18 -1 193 -102 457 -267
649 -404 721 -431 1058 -404 231 19 431 58 692 137 154 46 227 54 256 28 12
-10 71 -118 131 -239 216 -431 324 -597 418 -645 55 -28 178 -40 415 -40 244
0 407 -11 660 -45 l180 -24 25 31 c141 178 184 252 206 362 9 39 22 79 31 88
27 30 98 51 152 46 82 -8 111 -38 186 -193 50 -102 75 -142 102 -162 85 -65
127 -111 158 -173 62 -122 105 -139 251 -97 49 15 125 31 169 37 158 21 284
110 352 248 37 73 38 80 41 196 3 107 0 135 -27 241 -16 66 -29 120 -28 121 1
1 69 31 150 68 183 81 229 112 267 179 42 72 86 190 99 264 23 123 -6 210
-169 516 -124 233 -184 330 -307 498 -92 127 -112 171 -84 188 6 4 134 6 283
5 221 -1 283 -5 323 -18 67 -21 124 -20 176 4 25 11 66 20 95 20 110 0 319
-54 487 -127 236 -102 354 -132 537 -140 140 -5 172 -14 200 -53 65 -92 338
-160 641 -160 166 0 236 9 339 42 196 63 369 412 291 585 -29 63 -73 86 -426
221 -286 110 -487 195 -1005 425 -553 246 -879 383 -995 420 -44 13 -156 39
-250 57 -208 40 -560 127 -675 169 -97 35 -205 62 -335 86 -153 27 -280 63
-416 115 -399 155 -677 193 -1216 170 -212 -9 -358 -10 -486 -4 -100 5 -236 9
-302 9 -68 0 -135 5 -155 12 -65 23 -208 33 -577 43 -202 5 -399 14 -438 20
-38 6 -128 15 -200 19 -100 7 -142 14 -180 31 -100 44 -144 52 -342 57 -283 8
-537 -23 -903 -109 -134 -31 -203 -42 -292 -46 l-118 -4 54 104 c30 58 58 122
62 143 6 32 3 40 -16 55 -56 42 -363 159 -499 191 -47 11 -147 40 -223 64
-134 44 -138 45 -300 49 -109 3 -193 -1 -253 -10z m1135 -489 c0 -23 -47 -67
-67 -63 -25 5 -26 22 -3 51 24 30 70 37 70 12z m1418 -135 c28 -19 38 -48 21
-66 -8 -7 -61 -26 -117 -43 -57 -16 -107 -33 -110 -36 -15 -14 35 -35 82 -35
62 0 172 25 204 46 13 8 32 35 42 60 22 50 33 53 91 23 41 -21 43 -26 24 -71
-23 -56 240 -48 580 17 77 15 131 17 375 12 169 -4 368 -14 490 -26 113 -11
275 -28 360 -36 85 -9 261 -20 390 -25 157 -6 253 -14 290 -24 78 -22 117 -20
212 11 74 25 97 28 213 27 200 -1 381 -45 800 -194 293 -104 625 -189 1360
-350 369 -81 412 -96 1066 -398 764 -352 893 -406 1094 -454 207 -49 289 -97
270 -158 -9 -30 -72 -98 -105 -115 -43 -22 -118 -27 -215 -15 -49 6 -132 14
-182 17 -105 6 -119 -4 -53 -37 58 -29 139 -48 279 -64 67 -8 129 -20 137 -27
23 -19 16 -36 -23 -55 -32 -16 -62 -19 -198 -19 -88 0 -194 3 -235 7 l-75 7
67 -33 c85 -40 97 -51 71 -65 -35 -18 -167 21 -473 142 -202 80 -288 107 -494
157 -89 21 -215 57 -281 80 -333 116 -358 120 -760 145 -347 21 -427 36 -471
88 -13 15 -24 39 -24 52 0 16 -14 35 -41 57 -106 84 -142 124 -194 218 -69
123 -90 149 -105 133 -8 -7 -10 -26 -7 -50 20 -135 20 -143 4 -143 -22 0 -44
65 -82 244 -19 88 -41 166 -49 174 -19 20 -36 7 -36 -28 0 -16 -4 -32 -10 -35
-14 -8 -54 38 -92 104 -53 93 -76 120 -110 123 -24 2 -39 14 -63 48 -39 56
-61 59 -57 10 8 -82 7 -94 -9 -98 -10 -2 -25 10 -38 31 -28 46 -254 264 -258
250 -3 -7 3 -35 11 -64 28 -93 -14 -89 -86 9 -84 115 -117 139 -146 110 -20
-20 -14 -53 25 -151 37 -94 40 -119 28 -217 -6 -43 -2 -71 15 -129 19 -62 22
-88 17 -170 -8 -143 -72 -356 -102 -341 -5 3 -9 37 -8 75 1 39 3 133 4 210 2
77 0 152 -4 168 -10 35 -41 36 -64 0 -15 -23 -19 -57 -23 -213 -3 -102 -9
-191 -14 -198 -17 -28 -27 8 -37 134 -27 364 -31 398 -53 391 -30 -10 -40 -62
-38 -207 1 -153 -7 -191 -33 -156 -8 11 -17 36 -21 55 -12 74 -25 103 -43 96
-43 -19 -51 -15 -125 53 -99 92 -160 117 -261 107 -91 -9 -117 -9 -192 0 -62
8 -63 8 -63 -17 0 -14 8 -32 18 -41 34 -31 128 -67 202 -77 63 -8 79 -15 101
-39 28 -30 76 -154 109 -279 31 -116 63 -341 55 -387 -3 -22 -28 -105 -54
-185 -47 -139 -63 -202 -112 -442 -33 -166 -65 -189 -62 -45 1 96 22 218 65
377 17 63 39 151 50 195 22 94 35 332 19 355 -23 32 -33 -8 -51 -208 -12 -127
-34 -200 -51 -169 -6 10 -15 48 -20 85 -12 90 -18 112 -29 112 -11 0 -23 -43
-50 -185 -12 -60 -28 -125 -36 -145 -15 -34 -16 -34 -30 -15 -13 17 -15 42 -9
151 6 111 4 136 -9 163 -9 17 -20 31 -25 31 -5 0 -10 -33 -13 -74 -5 -112 -43
-137 -68 -44 -12 44 -43 80 -62 73 -9 -4 -13 -38 -14 -123 -1 -64 -9 -150 -18
-191 -27 -128 -36 -114 -50 78 -7 83 -15 153 -19 157 -4 4 -13 2 -20 -5 -9 -8
-14 -90 -18 -289 -9 -390 -43 -567 -165 -864 -24 -59 -44 -116 -44 -128 0 -23
31 -28 48 -7 11 13 154 455 197 606 31 110 50 151 70 151 44 0 39 -80 -20
-308 -78 -298 -229 -622 -291 -622 -7 0 -23 18 -34 39 -10 22 -31 48 -45 60
-38 29 -90 100 -136 186 -31 57 -41 87 -42 127 -1 28 -7 53 -13 55 -19 6 -69
-43 -89 -86 -10 -23 -24 -41 -30 -41 -30 0 -141 146 -191 254 l-25 51 5 -70
c3 -38 16 -108 30 -155 14 -46 23 -86 21 -89 -10 -9 -44 32 -74 89 -49 91 -72
198 -65 292 8 92 -4 101 -55 43 -28 -32 -31 -42 -31 -103 0 -45 9 -97 26 -153
55 -180 59 -198 46 -211 -29 -29 -113 105 -138 222 -13 66 -13 79 6 176 29
153 25 304 -9 304 -18 0 -30 -36 -41 -124 -6 -48 -20 -110 -31 -138 -23 -59
-22 -68 31 -268 60 -222 56 -248 -23 -165 -91 95 -136 229 -117 348 22 134 5
175 -41 101 -27 -44 -23 -94 21 -274 56 -232 41 -244 -98 -71 -50 61 -56 55
-48 -49 4 -50 3 -90 -2 -90 -17 0 -61 56 -81 103 -11 26 -37 100 -57 165 -43
139 -73 212 -87 212 -27 0 46 -327 103 -461 16 -39 30 -75 30 -80 0 -22 -28
-5 -81 50 -68 69 -98 126 -133 246 -30 104 -54 147 -67 122 -6 -10 0 -52 16
-119 25 -102 32 -178 17 -178 -4 0 -16 13 -25 30 -44 73 -97 115 -97 75 0 -9
16 -48 35 -88 40 -83 46 -137 15 -137 -29 0 -79 57 -147 171 -75 127 -89 146
-99 136 -4 -4 9 -46 30 -93 21 -47 35 -92 32 -100 -11 -28 -45 -13 -95 42 -61
66 -115 161 -172 299 -46 114 -70 152 -89 140 -21 -13 -4 -84 65 -269 36 -96
65 -180 65 -186 0 -18 -27 -11 -53 16 -38 37 -69 108 -158 358 -43 120 -83
224 -89 230 -19 19 -11 -104 15 -229 28 -134 32 -189 13 -183 -21 6 -75 126
-147 330 -83 232 -98 268 -113 268 -14 0 -5 -170 16 -285 20 -112 24 -156 16
-185 -7 -23 -9 -21 -32 30 -47 101 -119 344 -143 483 -4 20 -12 37 -18 37 -10
0 -3 -439 9 -535 l7 -50 -22 27 c-34 43 -71 132 -82 200 -19 113 8 466 40 526
16 30 14 59 -5 66 -35 13 -55 -29 -94 -198 -25 -106 -29 -115 -47 -91 -29 41
-13 214 36 380 12 38 21 83 21 100 0 16 11 53 25 82 44 96 124 367 112 380 -9
8 -56 -90 -99 -207 -71 -192 -146 -460 -194 -694 -23 -115 -36 -148 -51 -133
-16 16 -2 329 16 350 14 18 12 57 -4 60 -5 1 -20 -23 -31 -52 -29 -71 -50 -96
-70 -81 -8 7 -14 27 -15 44 -2 58 -13 81 -39 81 -18 0 -30 -11 -47 -40 -37
-66 -48 -53 -48 55 1 115 23 178 89 259 24 29 68 94 97 143 29 50 59 92 67 96
8 3 34 -5 58 -18 24 -14 46 -22 49 -18 3 3 16 50 30 104 27 114 42 156 57 165
6 4 8 14 5 23 -8 21 -41 14 -125 -26 -77 -36 -101 -67 -187 -239 -66 -130
-106 -189 -131 -189 -24 0 -26 25 -9 92 25 99 133 361 175 425 22 32 34 60 29
62 -16 5 -49 -30 -75 -82 -14 -26 -40 -64 -59 -84 -42 -45 -90 -161 -145 -354
-51 -179 -69 -211 -99 -175 -10 11 -9 25 3 61 17 48 23 206 7 190 -16 -19 -53
-147 -56 -197 -3 -57 -13 -71 -45 -66 -36 5 -61 66 -67 161 -5 75 -2 91 30
189 20 59 61 161 91 228 45 100 63 128 105 166 83 75 114 144 63 144 -21 0
-69 -48 -101 -102 -27 -46 -76 -88 -102 -88 -33 0 -36 -10 128 414 19 48 32
90 29 93 -13 14 -162 -231 -207 -341 -13 -32 -35 -67 -49 -78 -24 -19 -25 -19
-33 0 -12 26 19 136 83 302 55 143 59 169 30 188 -23 14 -26 49 -7 95 20 46
32 53 138 82 76 21 129 28 279 35 102 5 275 18 385 30 110 12 277 30 370 40
203 22 419 22 453 0z m3916 -1022 c33 -47 11 -92 -33 -68 -24 12 -29 58 -9 78
17 17 25 15 42 -10z m-377 -143 c-6 -112 -41 -293 -92 -476 -35 -127 -45 -146
-65 -134 -19 12 -6 134 29 296 17 75 39 189 51 253 11 65 27 134 35 153 13 31
17 34 31 22 14 -12 16 -29 11 -114z m549 80 c4 -8 1 -22 -6 -30 -16 -19 -40
-2 -40 26 0 23 38 26 46 4z m-5897 -136 c-6 -16 -15 -29 -20 -29 -15 0 -10 58
8 98 l17 37 4 -39 c2 -21 -2 -51 -9 -67z m5484 -152 c-2 -111 -42 -280 -98
-409 -39 -93 -78 -142 -88 -113 -8 20 7 99 38 197 29 92 48 176 70 308 9 52
23 106 32 119 14 22 16 22 31 7 14 -14 17 -35 15 -109z m552 73 c9 -15 -22
-60 -41 -60 -20 0 -28 24 -14 49 11 22 44 28 55 11z m-427 -241 c7 -165 -116
-559 -175 -559 -24 0 -12 74 52 325 30 118 55 226 55 240 0 40 18 67 43 63 20
-3 22 -10 25 -69z m-518 6 c0 -28 -35 -69 -50 -60 -15 9 -12 38 6 63 21 30 44
28 44 -3z m688 -47 c20 -20 14 -129 -13 -229 -30 -116 -167 -514 -195 -569
-11 -22 -28 -40 -37 -40 -26 0 -12 68 72 360 42 146 80 294 85 330 8 74 42
160 62 160 8 0 19 -5 26 -12z m-5700 -40 c24 -27 42 -70 42 -104 0 -19 -5 -24
-24 -24 -46 0 -90 86 -66 129 14 27 22 26 48 -1z m5840 -105 c3 -49 1 -61 -17
-77 -12 -11 -24 -16 -29 -12 -11 12 -7 86 7 129 17 52 33 35 39 -40z m-6038
13 c14 -18 10 -58 -7 -63 -16 -6 -47 43 -39 62 7 19 30 19 46 1z m488 -19 c5
-38 -14 -60 -39 -46 -21 11 -24 31 -8 60 15 28 43 20 47 -14z m-1070 -82 c-13
-29 -38 -33 -38 -7 0 23 8 32 31 32 16 0 17 -3 7 -25z m306 -1 c7 -18 -3 -64
-14 -64 -11 0 -20 26 -20 56 0 27 24 33 34 8z m146 -36 c7 -24 18 -53 26 -66
14 -21 20 -23 69 -17 49 7 54 5 66 -16 16 -30 17 -125 1 -141 -9 -9 -17 -7
-34 9 -13 12 -50 37 -83 55 -66 37 -105 86 -105 130 0 30 28 88 42 88 4 0 12
-19 18 -42z m6117 -115 c-11 -137 -73 -331 -167 -528 -50 -103 -76 -143 -86
-133 -9 10 42 195 96 348 29 80 57 168 64 197 6 30 23 64 37 80 33 35 49 65
49 92 0 12 3 21 6 21 4 0 4 -35 1 -77z m-1163 25 c7 -12 3 -42 -13 -105 -23
-88 -41 -171 -59 -273 -6 -30 -15 -68 -22 -85 -11 -29 -12 -30 -27 -10 -19 25
-12 134 18 280 40 192 69 246 103 193z m-534 -122 c-1 -21 -1 -21 -15 -2 -8
11 -15 29 -15 40 1 21 1 21 15 2 8 -11 15 -29 15 -40z m1988 42 c17 -17 15
-66 -7 -123 -10 -27 -33 -117 -51 -198 -62 -295 -233 -721 -277 -694 -17 10 0
69 78 275 139 368 209 593 209 674 0 39 14 78 28 78 5 0 13 -5 20 -12z m-161
-101 c-8 -117 -202 -681 -247 -722 -38 -35 -35 11 9 139 67 191 91 276 98 341
11 113 95 315 130 315 14 0 15 -10 10 -73z m-1127 48 c17 -20 8 -69 -36 -202
-61 -183 -111 -272 -128 -227 -8 21 7 85 56 232 47 148 74 212 86 212 5 0 15
-7 22 -15z m-4280 -21 c13 -33 13 -86 -1 -121 -10 -26 -11 -27 -24 -10 -29 40
-26 157 5 157 6 0 15 -12 20 -26z m3684 -85 c-2 -108 -23 -199 -108 -470 -113
-358 -228 -599 -286 -599 -18 0 -18 3 -6 43 7 23 45 121 84 217 86 214 117
309 182 560 56 216 87 318 103 338 23 29 32 4 31 -89z m2009 -69 c0 -36 -17
-140 -37 -231 -49 -228 -53 -259 -32 -259 38 0 98 92 117 180 12 55 28 61 43
17 13 -36 -22 -172 -73 -287 -23 -50 -55 -141 -71 -202 -46 -166 -131 -358
-159 -358 -5 0 -14 7 -21 15 -17 21 5 100 70 255 81 194 100 290 57 298 -20 4
-53 -60 -181 -356 -83 -193 -106 -237 -121 -231 -23 9 -3 92 59 245 86 211
141 361 210 569 31 94 65 185 76 203 16 26 20 50 20 116 0 86 4 99 30 94 12
-3 15 -17 13 -68z m-1128 40 c3 -5 -1 -35 -9 -67 -8 -32 -20 -92 -26 -133 -29
-178 -213 -663 -272 -716 -15 -15 -21 -16 -27 -5 -12 19 3 76 58 213 66 166
103 273 162 468 69 226 92 275 114 240z m-5555 -49 c13 -25 3 -51 -20 -51 -10
0 -21 7 -24 16 -7 17 10 54 24 54 5 0 14 -9 20 -19z m5385 -21 c8 -13 -31
-199 -57 -268 -11 -31 -34 -75 -49 -97 -18 -24 -33 -64 -40 -100 -22 -123 -34
-160 -51 -163 -46 -9 -27 111 47 294 29 73 61 165 70 205 9 41 23 89 31 107
13 31 37 42 49 22z m250 -189 c7 -23 -20 -135 -43 -173 -24 -41 -35 -23 -28
43 13 113 53 186 71 130z m-5267 -49 c13 -23 21 -49 18 -57 -14 -37 -156 3
-156 44 0 29 48 63 84 59 24 -2 36 -12 54 -46z m4392 19 c25 -16 14 -69 -59
-288 -126 -375 -251 -633 -308 -633 -21 0 -12 30 49 170 105 240 160 387 194
514 39 148 59 203 81 229 18 19 22 20 43 8z m2164 -87 c18 -48 -30 -226 -129
-480 -76 -194 -110 -264 -130 -264 -34 0 -9 97 90 350 42 105 86 230 99 279
33 123 54 157 70 115z m-7226 -78 c6 -14 17 -52 23 -85 11 -53 11 -65 -4 -96
-13 -28 -22 -36 -40 -33 -20 3 -22 8 -22 73 1 81 13 165 24 165 4 0 13 -11 19
-24z m6032 -56 c0 -109 -135 -472 -209 -560 l-20 -25 -1 23 c0 12 12 51 26 85
15 34 50 132 79 218 76 227 125 328 125 259z m-160 -34 c0 -74 -124 -384 -223
-556 -49 -86 -67 -98 -67 -44 0 34 158 452 212 558 41 82 78 102 78 42z m1474
-57 c0 -51 -10 -91 -48 -194 -55 -149 -106 -258 -123 -263 -6 -2 -17 6 -22 17
-17 31 1 95 75 269 36 83 68 169 71 190 6 37 19 54 38 48 6 -1 10 -32 9 -67z
m-6707 35 c24 -24 25 -30 20 -102 -6 -85 -50 -232 -77 -257 -15 -14 -18 -14
-32 2 -27 32 -40 86 -45 200 -5 95 -3 116 11 138 32 49 85 57 123 19z m301
-20 c63 20 95 -83 46 -152 -22 -32 -40 -14 -54 54 -6 30 -16 54 -21 54 -5 0
-9 -4 -9 -9 0 -15 -50 -62 -60 -56 -15 9 -12 52 6 88 22 42 35 49 56 31 9 -9
25 -13 36 -10z m-700 -89 c4 -115 -10 -157 -35 -102 -33 71 -23 192 15 185 14
-3 17 -16 20 -83z m1991 55 c23 -12 45 -64 37 -85 -9 -24 -40 -3 -60 40 -23
47 -13 65 23 45z m-1830 -17 c14 -28 31 -155 31 -237 0 -108 -23 -156 -50
-105 -16 29 -34 255 -26 312 8 49 27 62 45 30z m4688 -29 c3 -9 -8 -57 -26
-108 -17 -50 -31 -104 -31 -119 0 -32 -125 -280 -175 -349 -26 -35 -42 -48
-60 -48 -14 0 -25 1 -25 3 0 18 168 393 241 540 49 96 64 112 76 81z m1037
-55 c-2 -57 -141 -363 -151 -333 -2 6 10 47 27 90 17 43 39 114 50 156 20 82
46 131 64 125 6 -2 11 -20 10 -38z m-3412 -106 c35 -32 9 -83 -27 -53 -21 18
-19 70 3 70 3 0 14 -7 24 -17z m2506 -31 c8 -86 -96 -317 -250 -554 -46 -72
-68 -93 -68 -68 0 31 168 437 241 581 29 59 44 79 57 77 11 -2 18 -15 20 -36z
m-2152 -7 c6 -24 0 -44 -10 -34 -11 11 -17 59 -7 59 6 0 13 -11 17 -25z m-667
-88 c16 -20 26 -77 13 -77 -16 0 -42 41 -42 67 0 26 12 30 29 10z m3771 -110
c0 -35 -33 -97 -51 -97 -14 0 -7 51 15 104 18 43 36 40 36 -7z m-982 -231 c-4
-30 -36 -101 -103 -226 -111 -206 -140 -247 -161 -229 -24 20 -15 55 27 105
22 27 79 127 127 221 89 178 119 212 110 129z m132 -5 c0 -20 -13 -41 -25 -41
-21 0 -28 19 -15 35 14 17 40 20 40 6z m-1225 -156 c0 -39 -31 -48 -41 -11 -7
30 2 48 24 44 11 -2 17 -13 17 -33z m1313 -9 c3 -39 -11 -66 -34 -66 -17 0
-18 22 -3 73 13 47 33 44 37 -7z m-1068 -55 c0 -19 51 -61 74 -61 16 0 35 -13
55 -37 l31 -37 44 43 c38 38 47 42 61 31 10 -8 15 -29 15 -62 0 -68 -30 -98
-98 -98 -27 0 -65 -6 -83 -14 -56 -23 -172 9 -203 56 -23 35 0 108 52 171 15
17 52 24 52 8z m840 -103 c0 -47 -34 -98 -65 -98 -48 0 -42 71 9 112 35 29 56
23 56 -14z m-450 -14 c0 -65 -30 -92 -64 -58 -22 22 -20 41 9 69 36 36 55 33
55 -11z m580 9 c0 -35 -38 -99 -51 -86 -14 14 18 113 36 113 10 0 15 -10 15
-27z"/>
<path d="M3828 4812 c-13 -15 -51 -63 -83 -107 -33 -44 -76 -98 -96 -120 -66
-72 -89 -114 -89 -163 0 -30 -13 -72 -40 -134 -23 -50 -39 -95 -37 -101 1 -5
19 12 39 40 36 48 294 465 330 533 33 63 18 98 -24 52z"/>
<path d="M8284 4725 c-4 -9 -2 -21 4 -27 16 -16 47 -5 47 17 0 26 -42 34 -51
10z"/>
<path d="M6682 4268 c-35 -17 -22 -31 54 -55 70 -22 168 -30 178 -14 15 24
-106 82 -172 80 -20 0 -47 -5 -60 -11z"/>
<path d="M3430 4108 c-21 -35 -27 -88 -10 -88 13 0 49 77 50 103 0 27 -18 20
-40 -15z"/>
<path d="M10128 4093 c-69 -72 -80 -103 -37 -103 42 0 109 87 109 143 0 19
-30 2 -72 -40z"/>
<path d="M10598 4073 c-9 -10 -21 -36 -27 -58 -13 -49 -15 -175 -2 -175 12 0
74 76 93 115 30 59 31 83 4 110 -30 29 -47 31 -68 8z"/>
<path d="M9410 3895 c0 -36 80 -138 96 -122 10 9 -47 105 -72 122 -22 14 -24
14 -24 0z"/>
<path d="M9556 3883 c-4 -10 1 -27 12 -42 38 -51 57 -30 27 29 -18 34 -30 38
-39 13z"/>
<path d="M10874 3824 c-103 -61 -118 -89 -48 -87 57 2 158 83 139 113 -10 17
-28 12 -91 -26z"/>
<path d="M9634 3658 c-7 -12 21 -38 42 -38 17 0 37 27 29 40 -8 14 -62 13 -71
-2z"/>
<path d="M5917 3074 c-11 -12 -8 -47 9 -97 19 -56 29 -59 38 -13 10 54 -24
133 -47 110z"/>
<path d="M5440 2950 c-14 -25 -3 -68 21 -80 14 -8 20 -6 29 9 11 22 13 52 4
75 -9 22 -41 20 -54 -4z"/>
<path d="M4610 2868 c0 -15 5 -30 10 -33 13 -8 13 25 0 45 -8 12 -10 9 -10
-12z"/>
<path d="M6100 2858 c0 -23 11 -48 21 -48 14 0 11 24 -6 46 -12 16 -14 17 -15
2z"/>
<path d="M5321 2835 c0 -11 6 -31 14 -45 13 -22 14 -23 14 -5 0 11 -6 31 -14
45 -13 22 -14 23 -14 5z"/>
<path d="M5596 2833 c-3 -10 -5 -41 -5 -69 2 -87 -19 -96 -75 -34 -20 22 -39
40 -42 40 -4 0 -4 -21 -1 -46 3 -33 13 -54 35 -77 34 -35 46 -78 57 -199 4
-43 11 -78 16 -78 30 0 80 332 65 434 -6 36 -11 46 -26 46 -10 0 -21 -8 -24
-17z"/>
<path d="M6240 2816 c-17 -22 -27 -105 -18 -156 8 -46 93 -225 128 -270 l20
-25 0 38 c0 21 -9 74 -20 118 -11 44 -29 122 -40 175 -27 128 -41 154 -70 120z"/>
<path d="M6410 2769 c0 -98 45 -269 72 -269 17 0 4 111 -28 228 -15 56 -31
102 -36 102 -4 0 -8 -27 -8 -61z"/>
<path d="M6590 2673 c1 -26 34 -96 54 -112 46 -39 32 55 -16 106 -26 28 -38
29 -38 6z"/>
<path d="M6814 2577 c-17 -50 -42 -116 -55 -144 -25 -58 -20 -79 10 -42 49 59
116 279 85 279 -5 0 -23 -42 -40 -93z"/>
<path d="M2420 4595 c-7 -8 -38 -90 -70 -182 -32 -93 -75 -215 -95 -273 -25
-69 -39 -129 -42 -175 -4 -69 -4 -70 15 -48 10 11 47 106 82 210 34 103 78
223 97 265 39 90 55 162 42 195 -10 27 -13 28 -29 8z"/>
<path d="M1011 3907 c-19 -24 -40 -138 -61 -337 -25 -243 -75 -793 -90 -1000
-21 -285 -24 -305 -39 -305 -28 0 -50 50 -61 135 -25 193 -148 600 -180 600
-26 0 -72 -162 -95 -338 -18 -139 -32 -163 -71 -119 -24 28 -24 28 -24 5 0
-71 79 -480 100 -517 7 -14 9 -14 14 -1 3 8 7 130 9 270 5 268 21 406 55 464
40 69 54 44 87 -156 54 -327 170 -657 215 -612 17 17 30 151 55 582 33 576 47
695 74 654 11 -18 19 -120 31 -412 15 -352 35 -525 74 -640 15 -44 15 -42 11
80 -3 69 -7 303 -11 520 -4 285 -10 415 -20 465 -23 113 -36 336 -26 470 12
163 -7 240 -47 192z"/>
<path d="M1886 3638 c-3 -13 -18 -169 -33 -348 -31 -373 -37 -760 -15 -895 21
-126 53 -296 63 -337 11 -44 36 -50 45 -11 10 38 -3 266 -22 418 -15 108 -17
196 -14 525 6 671 6 663 -6 667 -6 2 -14 -6 -18 -19z"/>
<path d="M1616 3542 c-27 -45 -49 -510 -43 -932 5 -378 13 -442 64 -529 l28
-46 3 85 c2 47 -4 162 -14 255 -15 147 -16 221 -8 550 12 532 11 592 -8 611
-9 10 -18 12 -22 6z"/>
<path d="M214 3403 c-98 -98 -203 -671 -207 -1128 -2 -165 4 -225 22 -225 15
0 21 45 31 212 19 310 104 758 146 775 28 10 47 -24 100 -179 29 -84 53 -148
53 -141 1 6 -10 87 -23 180 -14 92 -34 241 -46 330 -11 90 -23 169 -26 178 -8
20 -29 19 -50 -2z"/>
<path d="M1375 3278 c-10 -44 -35 -286 -46 -448 -22 -330 11 -684 68 -732 18
-14 17 5 -7 307 -15 188 -12 531 6 698 16 143 14 197 -6 197 -5 0 -12 -10 -15
-22z"/>
</g>
</svg>
